<mxfile host="Electron" agent="Mozilla/5.0 (Macintosh; Intel Mac OS X 10_15_7) AppleWebKit/537.36 (KHTML, like Gecko) draw.io/27.0.9 Chrome/134.0.6998.205 Electron/35.4.0 Safari/537.36" version="27.0.9">
  <diagram name="Page-1" id="2DHNSXfSdHeheqPKqpJ6">
    <mxGraphModel dx="809" dy="832" grid="1" gridSize="10" guides="1" tooltips="1" connect="1" arrows="1" fold="1" page="1" pageScale="1" pageWidth="850" pageHeight="1100" math="0" shadow="0">
      <root>
        <mxCell id="0" />
        <mxCell id="1" parent="0" />
        <mxCell id="9AzRQlvU3oJx5EgO8rmF-12" value="" style="rounded=0;whiteSpace=wrap;html=1;fillColor=#e6d0de;gradientColor=#d5739d;strokeColor=#996185;" vertex="1" parent="1">
          <mxGeometry x="200" y="240" width="340" height="180" as="geometry" />
        </mxCell>
        <mxCell id="9AzRQlvU3oJx5EgO8rmF-32" value="" style="rounded=0;whiteSpace=wrap;html=1;fillColor=#dae8fc;strokeColor=#6c8ebf;gradientColor=#7ea6e0;" vertex="1" parent="1">
          <mxGeometry x="420" y="270" width="110" height="140" as="geometry" />
        </mxCell>
        <mxCell id="9AzRQlvU3oJx5EgO8rmF-29" value="" style="rounded=0;whiteSpace=wrap;html=1;fillColor=#dae8fc;strokeColor=#6c8ebf;gradientColor=#7ea6e0;" vertex="1" parent="1">
          <mxGeometry x="210" y="270" width="170" height="140" as="geometry" />
        </mxCell>
        <mxCell id="9AzRQlvU3oJx5EgO8rmF-19" value="" style="rounded=0;whiteSpace=wrap;html=1;fillColor=#e6d0de;gradientColor=#d5739d;strokeColor=#996185;" vertex="1" parent="1">
          <mxGeometry x="580" y="240" width="200" height="180" as="geometry" />
        </mxCell>
        <mxCell id="9AzRQlvU3oJx5EgO8rmF-2" value="Csr&lt;sub&gt;1&lt;/sub&gt;&lt;div&gt;&lt;sub&gt;0x100&lt;/sub&gt;&lt;/div&gt;" style="rounded=0;whiteSpace=wrap;html=1;fillColor=#1ba1e2;fontColor=#ffffff;strokeColor=#006EAF;" vertex="1" parent="1">
          <mxGeometry x="220" y="340" width="150" height="60" as="geometry" />
        </mxCell>
        <mxCell id="9AzRQlvU3oJx5EgO8rmF-3" value="" style="endArrow=classic;html=1;rounded=0;" edge="1" parent="1">
          <mxGeometry width="50" height="50" relative="1" as="geometry">
            <mxPoint x="379.99999999999994" y="430" as="sourcePoint" />
            <mxPoint x="379.99999999999994" y="470" as="targetPoint" />
          </mxGeometry>
        </mxCell>
        <mxCell id="9AzRQlvU3oJx5EgO8rmF-5" value="Csr&lt;sub&gt;n&lt;/sub&gt;&lt;div&gt;&lt;sub&gt;0x1n0&lt;/sub&gt;&lt;/div&gt;" style="rounded=0;whiteSpace=wrap;html=1;fillColor=#1ba1e2;fontColor=#ffffff;strokeColor=#006EAF;" vertex="1" parent="1">
          <mxGeometry x="430" y="340" width="90" height="60" as="geometry" />
        </mxCell>
        <mxCell id="9AzRQlvU3oJx5EgO8rmF-9" value="" style="endArrow=classic;html=1;rounded=0;" edge="1" parent="1">
          <mxGeometry width="50" height="50" relative="1" as="geometry">
            <mxPoint x="680" y="430" as="sourcePoint" />
            <mxPoint x="680" y="470" as="targetPoint" />
          </mxGeometry>
        </mxCell>
        <mxCell id="9AzRQlvU3oJx5EgO8rmF-10" value="Bus/Or Gate Network" style="rounded=0;whiteSpace=wrap;html=1;fillColor=#f8cecc;gradientColor=#ea6b66;strokeColor=#b85450;" vertex="1" parent="1">
          <mxGeometry x="200" y="480" width="580" height="40" as="geometry" />
        </mxCell>
        <mxCell id="9AzRQlvU3oJx5EgO8rmF-11" value="" style="endArrow=classic;html=1;rounded=0;" edge="1" parent="1">
          <mxGeometry width="50" height="50" relative="1" as="geometry">
            <mxPoint x="490" y="530" as="sourcePoint" />
            <mxPoint x="490" y="580" as="targetPoint" />
          </mxGeometry>
        </mxCell>
        <mxCell id="9AzRQlvU3oJx5EgO8rmF-20" value="Peripheral M 0x200..." style="text;html=1;align=center;verticalAlign=middle;whiteSpace=wrap;rounded=0;" vertex="1" parent="1">
          <mxGeometry x="590" y="240" width="180" height="30" as="geometry" />
        </mxCell>
        <mxCell id="9AzRQlvU3oJx5EgO8rmF-23" value="" style="rounded=0;whiteSpace=wrap;html=1;fillColor=#dae8fc;strokeColor=#6c8ebf;gradientColor=#7ea6e0;" vertex="1" parent="1">
          <mxGeometry x="710" y="270" width="60" height="140" as="geometry" />
        </mxCell>
        <mxCell id="9AzRQlvU3oJx5EgO8rmF-24" value="" style="rounded=0;whiteSpace=wrap;html=1;direction=south;fillColor=#dae8fc;strokeColor=#6c8ebf;gradientColor=#7ea6e0;" vertex="1" parent="1">
          <mxGeometry x="590" y="270" width="90" height="140" as="geometry" />
        </mxCell>
        <mxCell id="9AzRQlvU3oJx5EgO8rmF-25" value="Field&lt;sub&gt;1&lt;br&gt;0x100&lt;/sub&gt;" style="rounded=0;whiteSpace=wrap;html=1;fillColor=#0050ef;fontColor=#ffffff;strokeColor=#001DBC;" vertex="1" parent="1">
          <mxGeometry x="220" y="280" width="60" height="40" as="geometry" />
        </mxCell>
        <mxCell id="9AzRQlvU3oJx5EgO8rmF-27" value="Field&lt;sub&gt;n&lt;/sub&gt;&lt;div&gt;&lt;sub&gt;0x101&lt;/sub&gt;&lt;/div&gt;" style="rounded=0;whiteSpace=wrap;html=1;fillColor=#0050ef;fontColor=#ffffff;strokeColor=#001DBC;" vertex="1" parent="1">
          <mxGeometry x="310" y="280" width="60" height="40" as="geometry" />
        </mxCell>
        <mxCell id="9AzRQlvU3oJx5EgO8rmF-28" value="Peripheral 1 0x100 ..." style="text;html=1;align=center;verticalAlign=middle;whiteSpace=wrap;rounded=0;" vertex="1" parent="1">
          <mxGeometry x="210" y="240" width="320" height="30" as="geometry" />
        </mxCell>
        <mxCell id="9AzRQlvU3oJx5EgO8rmF-33" value="Field&lt;sub&gt;1&lt;/sub&gt;&lt;div&gt;&lt;sub&gt;0x1n0&lt;/sub&gt;&lt;/div&gt;" style="rounded=0;whiteSpace=wrap;html=1;fillColor=#0050ef;fontColor=#ffffff;strokeColor=#001DBC;align=center;verticalAlign=middle;fontFamily=Helvetica;fontSize=12;" vertex="1" parent="1">
          <mxGeometry x="430" y="275" width="60" height="40" as="geometry" />
        </mxCell>
        <mxCell id="9AzRQlvU3oJx5EgO8rmF-38" value="..." style="text;html=1;align=center;verticalAlign=middle;resizable=0;points=[];autosize=1;strokeColor=none;fillColor=none;" vertex="1" parent="1">
          <mxGeometry x="280" y="285" width="30" height="30" as="geometry" />
        </mxCell>
        <mxCell id="9AzRQlvU3oJx5EgO8rmF-41" value="..." style="text;html=1;align=center;verticalAlign=middle;resizable=0;points=[];autosize=1;strokeColor=none;fillColor=none;" vertex="1" parent="1">
          <mxGeometry x="385" y="365" width="30" height="30" as="geometry" />
        </mxCell>
        <mxCell id="9AzRQlvU3oJx5EgO8rmF-42" value="..." style="text;html=1;align=center;verticalAlign=middle;resizable=0;points=[];autosize=1;strokeColor=none;fillColor=none;fontFamily=Helvetica;fontSize=12;fontColor=default;" vertex="1" parent="1">
          <mxGeometry x="542" y="365" width="30" height="30" as="geometry" />
        </mxCell>
        <mxCell id="9AzRQlvU3oJx5EgO8rmF-43" value="..." style="text;html=1;align=center;verticalAlign=middle;resizable=0;points=[];autosize=1;strokeColor=none;fillColor=none;fontFamily=Helvetica;fontSize=12;fontColor=default;" vertex="1" parent="1">
          <mxGeometry x="678" y="365" width="30" height="30" as="geometry" />
        </mxCell>
        <mxCell id="9AzRQlvU3oJx5EgO8rmF-49" value="Csr&lt;span style=&quot;font-size: 10px;&quot;&gt;&lt;sub&gt;1&lt;/sub&gt;&lt;/span&gt;&lt;div&gt;&lt;sub&gt;0x200&lt;/sub&gt;&lt;/div&gt;" style="rounded=0;whiteSpace=wrap;html=1;fillColor=#1ba1e2;fontColor=#ffffff;strokeColor=#006EAF;" vertex="1" parent="1">
          <mxGeometry x="600" y="340" width="70" height="60" as="geometry" />
        </mxCell>
        <mxCell id="9AzRQlvU3oJx5EgO8rmF-50" value="Csr&lt;span style=&quot;font-size: 8.33333px;&quot;&gt;n&lt;/span&gt;&lt;div&gt;&lt;sub&gt;0x2n0&lt;/sub&gt;&lt;/div&gt;" style="rounded=0;whiteSpace=wrap;html=1;fillColor=#1ba1e2;fontColor=#ffffff;strokeColor=#006EAF;" vertex="1" parent="1">
          <mxGeometry x="720" y="340" width="40" height="60" as="geometry" />
        </mxCell>
        <mxCell id="9AzRQlvU3oJx5EgO8rmF-51" value="Field&lt;sub&gt;1&lt;/sub&gt;&lt;div&gt;&lt;sub&gt;0x200&lt;/sub&gt;&lt;/div&gt;" style="rounded=0;whiteSpace=wrap;html=1;fillColor=#0050ef;fontColor=#ffffff;strokeColor=#001DBC;align=center;verticalAlign=middle;fontFamily=Helvetica;fontSize=12;" vertex="1" parent="1">
          <mxGeometry x="600" y="275" width="60" height="40" as="geometry" />
        </mxCell>
        <mxCell id="9AzRQlvU3oJx5EgO8rmF-52" value="Field&lt;sub&gt;1&lt;/sub&gt;&lt;div&gt;&lt;sub&gt;0x2n0&lt;/sub&gt;&lt;/div&gt;" style="rounded=0;whiteSpace=wrap;html=1;fillColor=#0050ef;fontColor=#ffffff;strokeColor=#001DBC;align=center;verticalAlign=middle;fontFamily=Helvetica;fontSize=12;" vertex="1" parent="1">
          <mxGeometry x="720" y="275" width="40" height="40" as="geometry" />
        </mxCell>
        <mxCell id="9AzRQlvU3oJx5EgO8rmF-53" value="..." style="text;html=1;align=center;verticalAlign=middle;resizable=0;points=[];autosize=1;strokeColor=none;fillColor=none;" vertex="1" parent="1">
          <mxGeometry x="490" y="280" width="30" height="30" as="geometry" />
        </mxCell>
      </root>
    </mxGraphModel>
  </diagram>
</mxfile>
